PathFileType	4	(X/Y/Z)	/Users/visionmauri/Downloads/Videos/OAW04-top_Sports2D/OAW04-top_Sports2D_m_person00.trc
DataRate	CameraRate	NumFrames	NumMarkers	Units	OrigDataRate	OrigDataStartFrame	OrigNumFrames
30.0	30.0	7	22	m	30.0	1775	2367
Frame#	Time	Hip			RHip			RKnee			RAnkle			RBigToe			RSmallToe			RHeel			LHip			LKnee			LAnkle			LBigToe			LSmallToe			LHeel			Neck			Head			Nose			RShoulder			RElbow			RWrist			LShoulder			LElbow			LWrist			
		X1	Y1	Z1	X2	Y2	Z2	X3	Y3	Z3	X4	Y4	Z4	X5	Y5	Z5	X6	Y6	Z6	X7	Y7	Z7	X8	Y8	Z8	X9	Y9	Z9	X10	Y10	Z10	X11	Y11	Z11	X12	Y12	Z12	X13	Y13	Z13	X14	Y14	Z14	X15	Y15	Z15	X16	Y16	Z16	X17	Y17	Z17	X18	Y18	Z18	X19	Y19	Z19	X20	Y20	Z20	X21	Y21	Z21	X22	Y22	Z22
1775	59.19167371090449	7.814124895649465	-0.3850023240557337	0.0301	7.769254024159015	-0.2505638513644072	0.0301	7.335826216508814	-0.3674161241607056	0.129	7.05844944419084	-0.418020489857761	0.023	6.858243284781795	-0.4347631137568758	0.2179	6.888775878729425	-0.36091715751830744	0.1804	7.050337652154976	-0.4326984789006325	-0.0119	7.854442113328166	-0.5185642215499933	0.0301	7.353781801270317	-0.6278444726462827	0.129	6.817405909395739	-0.7365300315315466	0.023	6.639603315542467	-0.7973333103784371	0.2179	6.677993299922706	-0.8517529504699024	0.1804	6.7449229874561825	-0.7151284580858899	-0.0119	8.500751171676573	-0.14491436536991043	0.0008	8.84117627157599	0.04028814287932198	0.0655	8.516625521744793	-0.08159510577766783	0.1076	8.38416986321807	0.08810360467335916	-0.01275	7.964385673742338	0.053158926590259364	0.0702	7.608158481703208	-0.03808255666000202	0.1076	8.550714085282852	-0.42607981695355035	-0.01275	8.218851045274183	-0.6561663353162941	0.0702	7.895069831841187	-0.7932707132150446	0.1076
1776	59.22502113271345	7.794124374459805	-0.39235062688640404	0.0301	7.751854850888296	-0.255097074085475	0.0301	7.304109359452576	-0.3803922446814136	0.129	6.958718702674358	-0.4581802031219612	0.023	6.751393808193825	-0.4734418838948302	0.2179	6.78540930561859	-0.39843117584327425	0.1804	6.93488112203825	-0.4821122891196806	-0.0119	7.834492206082464	-0.5292619148438115	0.0301	7.33822239539683	-0.6332338839239782	0.129	6.818372325834603	-0.7363569627429999	0.023	6.637837939438207	-0.7978790161894037	0.2179	6.6772072019845545	-0.8529435620407664	0.1804	6.743713906162739	-0.718533586211071	-0.0119	8.489204939648323	-0.15300554485522083	0.0008	8.832095403331468	0.04118265071664801	0.0655	8.498465378058444	-0.0818613066033895	0.1076	8.3756875237875	0.08678302268389208	-0.01275	7.954301579156186	0.050411546146239924	0.0702	7.594362210558947	-0.0465956184554584	0.1076	8.539614484312832	-0.43910644009899086	-0.01275	8.186304227156784	-0.6775796879582197	0.0702	7.84447186187327	-0.8119023596796053	0.1076
1777	59.25836855452241	7.77237231876871	-0.39909810688296826	0.0301	7.728050437231204	-0.2639092738877011	0.0301	7.25748827291222	-0.3965598551994006	0.129	6.842580213767325	-0.4996894564420067	0.023	6.6338490810093145	-0.5126791374068823	0.2179	6.665432939137131	-0.43828087887482575	0.1804	6.802081347670199	-0.5314595700814033	-0.0119	7.808569291864901	-0.5399061214095464	0.0301	7.313440036720915	-0.6399992450516464	0.129	6.816696909638193	-0.7366058200166283	0.023	6.635558013483629	-0.7997016232793852	0.2179	6.676565495702763	-0.8537898951247606	0.1804	6.7460268979959235	-0.7224667672536302	-0.0119	8.465000827680269	-0.16743083459797886	0.0008	8.799611052462762	0.031277372956582186	0.0655	8.462458996065973	-0.0909006711560448	0.1076	8.365503516588195	0.08423949535642493	-0.01275	7.945470141917418	0.04785403599170277	0.0702	7.5860338955801625	-0.050849192203128814	0.1076	8.522841861164322	-0.44992145180557674	-0.01275	8.156163758107946	-0.6941421722095291	0.0702	7.796970059628587	-0.8269831084263036	0.1076
1778	59.29171597633137	7.745533628594857	-0.40709987325434166	0.0301	7.699245526516934	-0.27392784880553284	0.0301	7.202658556686239	-0.41284803100594203	0.129	6.722847756318117	-0.5381972343630063	0.023	6.520031131313171	-0.5447038748575564	0.2179	6.5426107772265185	-0.4748146382232442	0.1804	6.669910000551292	-0.574470146085446	-0.0119	7.778622552472245	-0.5502677751592845	0.0301	7.278123188941165	-0.6498642069098721	0.129	6.8093819661454456	-0.737846538576308	0.023	6.630891408983319	-0.8034852129281169	0.2179	6.674959887403203	-0.8545822173390326	0.1804	6.747648447254618	-0.7253180021109871	-0.0119	8.4317089107756	-0.184540488155632	0.0008	8.75422650111673	0.015991947251147505	0.0655	8.420281746165122	-0.10327612746727835	0.1076	8.352836166164375	0.08045322304474357	-0.01275	7.9355125920689735	0.04331875113485027	0.0702	7.580183342038827	-0.051794872312469105	0.1076	8.50357224789811	-0.4573225791966724	-0.01275	8.128644761790435	-0.7020332442703442	0.0702	7.754337740851779	-0.833608883793481	0.1076
1779	59.32506339814033	7.7124384655365565	-0.4144096758597946	0.0301	7.667586428022584	-0.2788190415577329	0.0301	7.1498483124295324	-0.4257807607401316	0.129	6.609071792350816	-0.5705754452278307	0.023	6.414140194154029	-0.5657864252145741	0.2179	6.427678548794405	-0.5017754597568472	0.1804	6.546112691049659	-0.6106893466595623	-0.0119	7.745445279825583	-0.5589876460672617	0.0301	7.239382258797608	-0.6612174552516527	0.129	6.800563047652666	-0.7400048752364016	0.023	6.623821858414821	-0.8065217194799236	0.2179	6.672387131784942	-0.8567511771982443	0.1804	6.747803570077323	-0.726191565827229	-0.0119	8.401395973057443	-0.1970496960114128	0.0008	8.721787820604408	0.008212072410685629	0.0655	8.393433017880273	-0.10807357733447825	0.1076	8.336078389995837	0.07679584971907907	-0.01275	7.923977699511425	0.03822056894504603	0.0702	7.574799093626181	-0.04994412971501156	0.1076	8.484202333072163	-0.4634702695561364	-0.01275	8.099861140758792	-0.7011692562258528	0.0702	7.714518832266682	-0.8253169022010062	0.1076
1780	59.35841081994929	7.679346395977073	-0.417885448492504	0.0301	7.634526043131107	-0.27949529618168273	0.0301	7.103880318158905	-0.43642263472379067	0.129	6.5090642551570355	-0.5972542960002764	0.023	6.319465222981435	-0.578604257856955	0.2179	6.328644733297584	-0.5185981460261485	0.1804	6.433888991633268	-0.6419860045435476	-0.0119	7.71033002367276	-0.5652377350382941	0.0301	7.209490780466011	-0.6709364558496549	0.129	6.797033626049958	-0.7410910277876518	0.023	6.618565603691628	-0.8075282262845624	0.2179	6.670704680062187	-0.8606251380272053	0.1804	6.749883452362176	-0.7252987790441863	-0.0119	8.382002500245664	-0.20153823636923188	0.0008	8.707536413147118	0.011378819684628873	0.0655	8.385598507128517	-0.10480756209158286	0.1076	8.315249249033581	0.07405763564898335	-0.01275	7.911418937202978	0.035613111892548406	0.0702	7.568573854876834	-0.04585846922294961	0.1076	8.464323128542505	-0.4697750368194351	-0.01275	8.067299294658907	-0.6941278566446257	0.0702	7.677480898834412	-0.7991696291208853	0.1076
1781	59.391758241758254	7.650645518671816	-0.41812600144792067	0.0301	7.601003533229209	-0.2813007263418427	0.0301	7.061673562868191	-0.44724589968372097	0.129	6.424870506139464	-0.6218964292485637	0.023	6.23894457023969	-0.5894540484449212	0.2179	6.247307841129409	-0.5320234332643111	0.1804	6.337002527398662	-0.6714836085350673	-0.0119	7.677486472369054	-0.5696950484858291	0.0301	7.197288182790812	-0.6762493484159096	0.129	6.799535037314101	-0.7390577312700376	0.023	6.61766465640899	-0.8086426700556871	0.2179	6.670010392603175	-0.8637675144680004	0.1804	6.755784996800838	-0.7230775741008302	-0.0119	8.369735274849305	-0.1978667730745781	0.0008	8.699652904199446	0.022653257675741077	0.0655	8.384241969186816	-0.09802620495280506	0.1076	8.290554619526878	0.07243361764141541	-0.01275	7.898378775372283	0.035642323947867295	0.0702	7.56345509044548	-0.0410052556824935	0.1076	8.44103533123138	-0.474330385058032	-0.01275	8.032814165766519	-0.6830185419458755	0.0702	7.644956617569512	-0.7566080337784734	0.1076
